HIERARCHY
ROOT Hips
{
	OFFSET	0.00	0.00	0.00
	CHANNELS 6 Xposition Yposition Zposition Zrotation Xrotation Yrotation
	JOINT LeftUpLeg
	{
		OFFSET	 0.126116	-0.014019	-0.065224
		CHANNELS 3 Zrotation Xrotation Yrotation
		JOINT LeftLeg
		{
			OFFSET	 0.000000	 0.000000	 0.569914
			CHANNELS 3 Zrotation Xrotation Yrotation
			JOINT LeftFoot
			{
				OFFSET	 0.000000	 0.000000	 0.544423
				CHANNELS 3 Zrotation Xrotation Yrotation
				JOINT LeftToeBase
				{
					OFFSET	 0.000000	 0.000000	 0.207117
					CHANNELS 3 Zrotation Xrotation Yrotation
					End Site
					{
						OFFSET	 0.000000	 0.000000	 0.207117
					}
				}
			}
		}
	}
	JOINT RightUpLeg
	{
		OFFSET	-0.124023	-0.008373	-0.065224
		CHANNELS 3 Zrotation Xrotation Yrotation
		JOINT RightLeg
		{
			OFFSET	 0.000000	 0.000000	 0.570047
			CHANNELS 3 Zrotation Xrotation Yrotation
			JOINT RightFoot
			{
				OFFSET	 0.000000	 0.000000	 0.544354
				CHANNELS 3 Zrotation Xrotation Yrotation
				JOINT RightToeBase
				{
					OFFSET	 0.000000	 0.000000	 0.207540
					CHANNELS 3 Zrotation Xrotation Yrotation
					End Site
					{
						OFFSET	 0.000000	 0.000000	 0.207540
					}
				}
			}
		}
	}
	JOINT Spine
	{
		OFFSET	 0.000184	-0.007763	 0.117403
		CHANNELS 3 Zrotation Xrotation Yrotation
		JOINT Spine1
		{
			OFFSET	 0.000000	 0.000000	 0.137269
			CHANNELS 3 Zrotation Xrotation Yrotation
			JOINT Spine2
			{
				OFFSET	 0.000000	 0.000000	 0.156879
				CHANNELS 3 Zrotation Xrotation Yrotation
				JOINT LeftShoulder
				{
					OFFSET	 0.080501	-0.002496	 0.160144
					CHANNELS 3 Zrotation Xrotation Yrotation
					JOINT LeftArm
					{
						OFFSET	 0.000000	 0.000000	 0.164363
						CHANNELS 3 Zrotation Xrotation Yrotation
						JOINT LeftForeArm
						{
							OFFSET	 0.000000	 0.000000	 0.364576
							CHANNELS 3 Zrotation Xrotation Yrotation
							JOINT LeftHand
							{
								OFFSET	 0.000000	 0.000000	 0.360812
								CHANNELS 3 Zrotation Xrotation Yrotation
								JOINT LeftHandIndex1
								{
									OFFSET	 0.000000	 0.000000	 0.086006
									CHANNELS 3 Zrotation Xrotation Yrotation
									JOINT LeftHandIndex2
									{
										OFFSET	 0.000000	 0.000000	 0.047236
										CHANNELS 3 Zrotation Xrotation Yrotation
										JOINT LeftHandIndex3
										{
											OFFSET	-0.004284	-0.000551	 0.038166
											CHANNELS 3 Zrotation Xrotation Yrotation
											End Site
											{
												OFFSET	-0.004284	-0.000551	 0.038166
											}
										}
									}
								}
							}
						}
					}
				}
				JOINT Neck
				{
					OFFSET	 0.000000	 0.000000	 0.176489
					CHANNELS 3 Zrotation Xrotation Yrotation
					JOINT Head
					{
						OFFSET	 0.000000	-0.001747	 0.077940
						CHANNELS 3 Zrotation Xrotation Yrotation
						End Site
						{
							OFFSET	 0.000000	-0.001747	 0.077940
						}
					}
				}
				JOINT RightShoulder
				{
					OFFSET	-0.080363	 0.000306	 0.159706
					CHANNELS 3 Zrotation Xrotation Yrotation
					JOINT RightArm
					{
						OFFSET	 0.000000	 0.000000	 0.164196
						CHANNELS 3 Zrotation Xrotation Yrotation
						JOINT RightForeArm
						{
							OFFSET	 0.000000	 0.000000	 0.365611
							CHANNELS 3 Zrotation Xrotation Yrotation
							JOINT RightHand
							{
								OFFSET	 0.000000	 0.000000	 0.360648
								CHANNELS 3 Zrotation Xrotation Yrotation
								JOINT RightHandIndex1
								{
									OFFSET	 0.000000	 0.000000	 0.069977
									CHANNELS 3 Zrotation Xrotation Yrotation
									JOINT RightHandIndex2
									{
										OFFSET	 0.000000	 0.000000	 0.052305
										CHANNELS 3 Zrotation Xrotation Yrotation
										JOINT RightHandIndex3
										{
											OFFSET	 0.009002	-0.000782	 0.042196
											CHANNELS 3 Zrotation Xrotation Yrotation
											End Site
											{
												OFFSET	 0.009002	-0.000782	 0.042196
											}
										}
									}
								}
							}
						}
					}
				}
			}
		}
	}
}
MOTION
Frames:    8
Frame Time: 0.03333334
-0.000463	 0.020328	 1.220544	 0.003924	 0.008756	-0.053560	-6.517122	-13.469630	 179.564400	 0.739002	-36.551900	-2.444370	-25.711360	 83.520580	 19.893030	-2.385833	 28.452760	 0.000004	 6.408807	-13.688140	-179.432200	-0.729277	-36.740000	 2.415925	 25.102080	 83.576240	-19.419870	 2.384658	 28.388730	 0.000004	 1.299653	 2.776469	-0.003100	 0.672473	 3.465852	 0.341112	-2.022704	-4.406647	-0.471426	-91.776150	 78.527430	 180.000000	 60.567870	 42.172350	-45.467800	-7.822207	 3.974078	-9.982284	-28.460990	 3.900001	-4.258453	-2.635965	 4.993658	 6.788941	-5.165319	 0.784187	 3.516649	-5.225038	 0.466231	 0.424329	-0.000002	-3.783157	-0.089647	-1.959329	 5.145546	 0.088034	 89.782100	 78.203900	 180.000000	 4.052401	 13.271200	 100.409200	-34.370300	-0.164335	 0.486221	 3.899355	 3.321580	-6.153821	 6.112037	 4.509576	-0.364401	 4.968462	 1.518543	-9.347576	 5.168945	 0.703820	 2.021906
-0.000474	 0.020034	 1.220960	 0.003930	 0.008735	-0.053376	-6.516142	-13.399900	 179.560100	 0.746292	-36.414330	-2.432115	-25.412650	 83.461620	 19.591890	-2.385833	 28.452760	 0.000004	 6.406802	-13.604650	-179.429400	-0.736728	-36.597970	 2.403446	 24.830240	 83.525980	-19.145060	 2.384658	 28.388730	 0.000004	 1.296529	 2.779716	-0.003010	 0.670785	 3.454650	 0.340429	-2.017677	-4.392446	-0.469934	-91.776150	 78.527490	 180.000000	 60.610980	 42.128410	-45.522500	-7.825527	 3.955522	-9.935100	-28.464840	 3.899454	-4.259027	-2.635965	 4.993658	 6.788941	-5.165319	 0.784187	 3.516649	-5.225038	 0.466231	 0.424329	-0.000002	-3.783157	-0.089647	-1.954682	 5.152410	 0.087943	 89.782120	 78.203870	 180.000000	 4.071387	 13.510250	 100.453000	-34.535610	-0.166138	 0.487084	 3.934941	 3.203110	-6.218986	 6.112037	 4.509576	-0.364401	 4.968462	 1.518543	-9.347576	 5.168945	 0.703820	 2.021906
-0.000488	 0.019737	 1.221371	 0.003931	 0.008720	-0.053181	-6.515180	-13.330680	 179.555700	 0.753468	-36.277890	-2.420006	-25.121970	 83.403080	 19.298780	-2.385833	 28.452760	 0.000004	 6.404801	-13.521710	-179.426700	-0.744070	-36.457000	 2.391112	 24.564900	 83.476010	-18.876780	 2.384658	 28.388730	 0.000004	 1.293248	 2.782947	-0.002910	 0.669016	 3.443494	 0.339758	-2.012420	-4.378309	-0.468408	-91.776200	 78.527470	 180.000000	 60.703870	 42.076490	-45.643020	-7.830422	 3.926752	-9.861939	-28.479310	 3.897523	-4.261368	-2.635965	 4.993658	 6.788941	-5.165319	 0.784187	 3.516649	-5.225038	 0.466231	 0.424329	-0.000002	-3.783157	-0.089647	-1.949825	 5.159340	 0.087842	 89.782160	 78.203870	 179.999900	 4.077363	 13.798200	 100.502300	-34.711410	-0.166911	 0.484648	 3.680429	 3.254231	-6.265334	 6.112037	 4.509576	-0.364401	 4.968462	 1.518543	-9.347576	 5.168945	 0.703820	 2.021906
-0.000489	 0.019383	 1.221814	 0.003939	 0.008703	-0.052950	-6.514125	-13.255570	 179.551000	 0.761170	-36.130400	-2.406963	-24.814290	 83.339850	 18.988460	-2.385833	 28.452760	 0.000004	 6.402558	-13.430820	-179.423800	-0.751973	-36.304170	 2.377785	 24.284420	 83.422640	-18.593080	 2.384658	 28.388730	 0.000004	 1.289297	 2.786632	-0.002780	 0.666895	 3.430751	 0.338880	-2.006073	-4.362196	-0.466569	-91.776140	 78.527450	 180.000000	 60.875290	 42.029830	-45.848230	-7.833197	 3.911516	-9.823157	-28.509800	 3.893431	-4.266290	-2.635965	 4.993658	 6.788941	-5.165319	 0.784187	 3.516649	-5.225038	 0.466231	 0.424329	-0.000002	-3.783157	-0.089647	-1.943946	 5.167209	 0.087710	 89.782120	 78.203900	 180.000000	 3.906758	 14.422090	 100.526800	-34.586550	-0.166104	 0.485606	 2.512893	 3.545505	-6.249427	 6.112037	 4.509576	-0.364401	 4.968462	 1.518543	-9.347576	 5.168945	 0.703820	 2.021906
-0.000463	 0.019109	 1.221991	 0.003936	 0.008688	-0.052790	-6.513603	-13.223520	 179.549200	 0.764290	-36.070400	-2.401672	-24.694690	 83.315510	 18.867730	-2.385833	 28.452760	 0.000004	 6.401274	-13.387670	-179.423200	-0.755266	-36.240290	 2.372226	 24.182190	 83.405250	-18.489260	 2.384658	 28.388730	 0.000004	 1.286414	 2.789200	-0.002677	 0.665353	 3.421895	 0.338290	-2.001469	-4.350970	-0.465270	-91.776210	 78.527470	-180.000000	 61.041710	 42.014730	-46.025160	-7.829443	 3.932643	-9.876916	-28.540790	 3.889261	-4.271286	-2.635965	 4.993658	 6.788941	-5.165319	 0.784187	 3.516649	-5.225038	 0.466231	 0.424329	-0.000002	-3.783157	-0.089647	-1.939662	 5.172720	 0.087611	 89.782170	 78.203900	 179.999900	 3.824063	 15.518290	 100.564300	-33.815230	-0.159318	 0.486991	 1.942675	 3.450081	-6.190826	 6.112037	 4.509576	-0.364401	 4.968462	 1.518543	-9.347576	 5.168945	 0.703820	 2.021906
-0.000418	 0.018719	 1.222307	 0.003945	 0.008669	-0.052569	-6.512759	-13.167930	 179.545900	 0.769792	-35.963970	-2.392306	-24.481360	 83.271030	 18.652440	-2.385833	 28.452760	 0.000004	 6.399318	-13.316360	-179.421700	-0.760996	-36.128310	 2.362513	 23.993070	 83.370540	-18.297580	 2.384658	 28.388730	 0.000004	 1.282147	 2.792827	-0.002511	 0.663074	 3.409376	 0.337387	-1.994676	-4.335118	-0.463360	-91.776220	 78.527490	-180.000000	 61.382140	 42.046230	-46.425980	-7.823085	 3.969153	-9.969942	-28.595800	 3.881965	-4.280227	-2.635965	 4.993658	 6.788941	-5.165319	 0.784187	 3.516649	-5.225038	 0.466231	 0.424329	-0.000002	-3.783157	-0.089647	-1.933346	 5.180531	 0.087458	 89.782100	 78.203900	 180.000000	 2.584151	 17.694880	 100.461100	-31.834300	-0.142690	 0.493180	 2.402402	 2.686603	-6.076235	 6.112037	 4.509576	-0.364401	 4.968462	 1.518543	-9.347576	 5.168945	 0.703820	 2.021906
-0.000433	 0.018478	 1.223144	 0.003947	 0.008654	-0.052357	-6.511042	-13.031330	 179.536500	 0.784104	-35.684770	-2.367851	-23.913010	 83.145110	 18.079410	-2.385833	 28.452760	 0.000004	 6.396491	-13.167280	-179.414000	-0.775355	-35.845300	 2.338080	 23.445940	 83.252410	-17.745370	 2.384658	 28.388730	 0.000004	 1.278521	 2.795770	-0.002377	 0.661141	 3.399171	 0.336565	-1.988895	-4.322227	-0.461727	-91.776160	 78.527450	 180.000000	 61.782680	 42.132640	-47.003810	-7.829624	 3.931766	-9.874895	-28.643340	 3.875644	-4.287955	-2.635965	 4.993658	 6.788941	-5.165319	 0.784187	 3.516649	-5.225038	 0.466231	 0.424329	-0.000002	-3.783157	-0.089647	-1.927948	 5.186810	 0.087319	 89.782160	 78.203890	 179.999900	-1.304037	 19.916410	 100.056600	-29.631340	-0.123517	 0.497602	 4.012986	 1.608073	-5.870252	 6.112037	 4.509576	-0.364401	 4.968462	 1.518543	-9.347576	 5.168945	 0.703820	 2.021906
-0.000464	 0.018221	 1.224452	 0.003946	 0.008633	-0.052130	-6.508383	-12.817330	 179.521600	 0.806295	-35.244160	-2.329611	-23.054380	 82.943470	 17.213490	-2.385833	 28.452760	 0.000004	 6.392438	-12.938740	-179.401100	-0.797509	-35.400590	 2.300043	 22.611010	 83.060170	-16.902760	 2.384658	 28.388730	 0.000004	 1.274064	 2.799238	-0.002189	 0.658775	 3.387172	 0.335566	-1.981803	-4.307057	-0.459752	-91.776140	 78.527450	 180.000000	 62.401490	 42.304590	-47.927870	-7.839329	 3.876151	-9.733385	-28.700880	 3.867972	-4.297287	-2.635965	 4.993658	 6.788941	-5.165319	 0.784187	 3.516649	-5.225038	 0.466231	 0.424329	-0.000002	-3.783157	-0.089647	-1.921324	 5.194284	 0.087145	 89.782180	 78.203900	 179.999900	-8.234944	 23.338660	 97.278240	-26.731650	-0.534281	 2.732091	 6.896821	 0.088990	-5.380978	 6.112037	 4.509576	-0.364401	 4.968462	 1.518543	-9.347576	 5.168945	 0.703820	 2.021906
